<svg width="73" height="65" viewBox="0 0 73 65" fill="none" xmlns="http://www.w3.org/2000/svg">
<g id="Layer_1">
<g id="Layer_1_1_">
<path id="Vector" d="M33.58 23.4H30.66V26H33.58V23.4Z" fill="black"/>
<path id="Vector_2" d="M39.42 23.4H36.5V26H39.42V23.4Z" fill="black"/>
<path id="Vector_3" d="M45.26 23.4H42.34V26H45.26V23.4Z" fill="black"/>
<path id="Vector_4" d="M51.1 23.4H48.18V26H51.1V23.4Z" fill="black"/>
<path id="Vector_5" d="M33.58 28.6H30.66V31.2H33.58V28.6Z" fill="black"/>
<path id="Vector_6" d="M39.42 28.6H36.5V31.2H39.42V28.6Z" fill="black"/>
<path id="Vector_7" d="M45.26 28.6H42.34V31.2H45.26V28.6Z" fill="black"/>
<path id="Vector_8" d="M51.1 28.6H48.18V31.2H51.1V28.6Z" fill="black"/>
<path id="Vector_9" d="M33.58 33.8H30.66V36.4H33.58V33.8Z" fill="black"/>
<path id="Vector_10" d="M39.42 33.8H36.5V36.4H39.42V33.8Z" fill="black"/>
<path id="Vector_11" d="M45.26 33.8H42.34V36.4H45.26V33.8Z" fill="black"/>
<path id="Vector_12" d="M51.1 33.8H48.18V36.4H51.1V33.8Z" fill="black"/>
<path id="Vector_13" d="M33.58 39H30.66V41.6H33.58V39Z" fill="black"/>
<path id="Vector_14" d="M39.42 39H36.5V41.6H39.42V39Z" fill="black"/>
<path id="Vector_15" d="M45.26 39H42.34V41.6H45.26V39Z" fill="black"/>
<path id="Vector_16" d="M51.1 39H48.18V41.6H51.1V39Z" fill="black"/>
<path id="Vector_17" d="M10.22 31.2H7.29999V33.8H10.22V31.2Z" fill="black"/>
<path id="Vector_18" d="M16.06 31.2H13.14V33.8H16.06V31.2Z" fill="black"/>
<path id="Vector_19" d="M21.9 31.2H18.98V33.8H21.9V31.2Z" fill="black"/>
<path id="Vector_20" d="M10.22 36.4H7.29999V39H10.22V36.4Z" fill="black"/>
<path id="Vector_21" d="M16.06 36.4H13.14V39H16.06V36.4Z" fill="black"/>
<path id="Vector_22" d="M21.9 36.4H18.98V39H21.9V36.4Z" fill="black"/>
<path id="Vector_23" d="M10.22 41.6H7.29999V44.2H10.22V41.6Z" fill="black"/>
<path id="Vector_24" d="M16.06 41.6H13.14V44.2H16.06V41.6Z" fill="black"/>
<path id="Vector_25" d="M21.9 41.6H18.98V44.2H21.9V41.6Z" fill="black"/>
<path id="Vector_26" d="M10.22 46.8H7.29999V49.4H10.22V46.8Z" fill="black"/>
<path id="Vector_27" d="M16.06 46.8H13.14V49.4H16.06V46.8Z" fill="black"/>
<path id="Vector_28" d="M21.9 46.8H18.98V49.4H21.9V46.8Z" fill="black"/>
<path id="Vector_29" d="M65.7 28.6H59.86V31.2H65.7V28.6Z" fill="black"/>
<path id="Vector_30" d="M65.7 23.4H59.86V26H65.7V23.4Z" fill="black"/>
<path id="Vector_31" d="M65.7 33.8H59.86V36.4H65.7V33.8Z" fill="black"/>
<path id="Vector_32" d="M65.7 39H59.86V41.6H65.7V39Z" fill="black"/>
<path id="Vector_33" d="M65.7 44.2H59.86V46.8H65.7V44.2Z" fill="black"/>
<path id="Vector_34" d="M65.7 49.4H59.86V52H65.7V49.4Z" fill="black"/>
<path id="Vector_35" d="M65.7 54.6H59.86V57.2H65.7V54.6Z" fill="black"/>
<path id="Vector_36" d="M67.16 11.7H64.24V16.8727L54.02 10.5027V18.2H49.64V9.09999H42.34V1.29999H39.42V9.09999H32.12V18.2H24.82V26H7.29999V23.9382L9.11477 22.3223C10.2988 23.0217 11.6858 23.4 13.14 23.4C15.0906 23.4 16.9229 22.724 18.3011 21.4968L19.3333 20.5777L9.01111 11.3854L7.97889 12.3045C5.48667 14.5236 5.17715 17.9621 7.05033 20.4841L4.37999 22.8618V26H1.45999V63.7H24.82H27.74H35.04H46.72H54.02H56.94H71.54V21.4227L67.16 18.6927V11.7ZM9.18777 15.2191L15.0292 20.4204C13.4218 21.1055 11.3398 20.8117 10.0433 19.6573C8.69721 18.46 8.41251 16.6686 9.18777 15.2191ZM35.04 11.7H46.72V18.2H35.04V11.7ZM24.82 61.1H4.37999V28.6H24.82V61.1ZM37.96 61.1V52H43.8V61.1H37.96ZM54.02 61.1H46.72V49.4H35.04V61.1H27.74V26V20.8H32.12H49.64H54.02V61.1ZM68.62 61.1H56.94V18.2V15.496L68.62 22.776V61.1Z" fill="black"/>
</g>
</g>
</svg>
