<svg width="64" height="65" viewBox="0 0 64 65" fill="none" xmlns="http://www.w3.org/2000/svg">
<g id="Layer_1" clip-path="url(#clip0_225_224)">
<g id="Group">
<path id="Vector" d="M36.2813 2.19265C36.2813 0.985341 37.4271 0 38.8542 0C40.2813 0 41.4271 0.979927 41.4271 2.19265V11.7862C41.4271 12.9935 40.2813 13.9788 38.8542 13.9788C37.4271 13.9788 36.2813 12.9989 36.2813 11.7862V2.19265ZM47.5885 30.8758C49.8073 30.8758 51.9271 31.336 53.8646 32.1697C55.8802 33.036 57.6875 34.3028 59.1979 35.8729C60.7083 37.4429 61.9271 39.327 62.7604 41.4114C63.5625 43.4254 64.0052 45.6289 64.0052 47.9352C64.0052 50.2415 63.5625 52.445 62.7604 54.459C61.9271 56.5542 60.7083 58.4329 59.1979 60.0029C57.6875 61.573 55.875 62.8398 53.8698 63.7061C51.9323 64.5398 49.8125 65 47.5938 65C45.375 65 43.2552 64.5398 41.3177 63.7061C39.3021 62.8398 37.4948 61.573 35.9844 60.0029C34.474 58.4329 33.2552 56.5488 32.4219 54.459C31.6198 52.445 31.1771 50.2415 31.1771 47.9352C31.1771 45.6289 31.6198 43.4254 32.4219 41.4114C33.2552 39.3162 34.474 37.4375 35.9844 35.8675C37.4948 34.2974 39.3073 33.0306 41.3125 32.1643C43.25 31.336 45.3646 30.8758 47.5885 30.8758ZM46.3594 40.805C46.3594 40.3936 46.5208 40.02 46.7813 39.7493C47.0417 39.4786 47.401 39.3108 47.8021 39.3108C48.2031 39.3108 48.5625 39.4786 48.8229 39.7493C49.0833 40.02 49.2448 40.3936 49.2448 40.8104V48.7906L54.9844 52.3313L55.0313 52.3638C55.349 52.575 55.5573 52.8944 55.6406 53.2463C55.7292 53.6144 55.6875 54.0151 55.4948 54.3616L55.4844 54.3778C55.474 54.3995 55.4635 54.4157 55.4479 54.4319C55.2448 54.7568 54.9375 54.9733 54.6042 55.06C54.25 55.152 53.8646 55.1087 53.5313 54.9084L47.1146 50.9616C46.8906 50.8371 46.7031 50.6476 46.5677 50.4256C46.4323 50.1982 46.3542 49.9329 46.3542 49.6514L46.3594 40.805ZM57.1615 37.9843C55.9115 36.685 54.4219 35.6401 52.7708 34.9309C51.1771 34.2433 49.4271 33.8697 47.5885 33.8697C45.75 33.8697 44 34.2487 42.4063 34.9309C40.7552 35.6401 39.2656 36.685 38.0156 37.9843C36.7656 39.2837 35.7604 40.8321 35.0781 42.5483C34.4167 44.205 34.0573 46.0241 34.0573 47.9352C34.0573 49.8463 34.4219 51.6654 35.0781 53.3221C35.7604 55.0383 36.7656 56.5867 38.0156 57.8861C39.2656 59.1854 40.7552 60.2303 42.4063 60.9395C44 61.6271 45.75 62.0007 47.5885 62.0007C49.4271 62.0007 51.1771 61.6217 52.7708 60.9395C54.4219 60.2303 55.9115 59.1854 57.1615 57.8861C59.6146 55.3361 61.125 51.8224 61.125 47.9352C61.125 46.0241 60.7604 44.205 60.1042 42.5483C59.4167 40.8321 58.4115 39.2837 57.1615 37.9843ZM7.00521 31.0545C6.85938 31.0545 6.72917 30.3886 6.72917 29.571C6.72917 28.7535 6.84375 28.093 7.00521 28.093H14.026C14.1719 28.093 14.3021 28.759 14.3021 29.571C14.3021 30.3886 14.1875 31.0545 14.026 31.0545H7.00521ZM18.1979 31.0545C18.0521 31.0545 17.9219 30.3886 17.9219 29.571C17.9219 28.7535 18.0365 28.093 18.1979 28.093H25.2188C25.3646 28.093 25.4948 28.759 25.4948 29.571C25.4948 30.3886 25.3802 31.0545 25.2188 31.0545H18.1979ZM29.3906 31.0545C29.2448 31.0545 29.1146 30.3886 29.1146 29.571C29.1146 28.7535 29.2292 28.093 29.3906 28.093H36.4115C36.5573 28.093 36.6875 28.7535 36.6875 29.5656C35.9844 30.0204 35.3073 30.5185 34.6615 31.0545H29.3906ZM7.02083 39.5436C6.875 39.5436 6.74479 38.8776 6.74479 38.0601C6.74479 37.2426 6.85938 36.5767 7.02083 36.5767H14.0417C14.1875 36.5767 14.3177 37.2426 14.3177 38.0601C14.3177 38.8776 14.2031 39.5436 14.0417 39.5436H7.02083ZM18.2135 39.5436C18.0677 39.5436 17.9375 38.8776 17.9375 38.0601C17.9375 37.2426 18.0521 36.5767 18.2135 36.5767H25.2344C25.3802 36.5767 25.5104 37.2426 25.5104 38.0601C25.5104 38.8776 25.3958 39.5436 25.2344 39.5436H18.2135ZM7.03646 48.0381C6.89063 48.0381 6.76042 47.3721 6.76042 46.5546C6.76042 45.7371 6.875 45.0712 7.03646 45.0712H14.0573C14.2031 45.0712 14.3333 45.7371 14.3333 46.5546C14.3333 47.3721 14.2188 48.0381 14.0573 48.0381H7.03646ZM18.2292 48.0381C18.0833 48.0381 17.9531 47.3721 17.9531 46.5546C17.9531 45.7371 18.0677 45.0712 18.2292 45.0712H25.25C25.3958 45.0712 25.526 45.7371 25.526 46.5546C25.526 47.3721 25.4115 48.0381 25.25 48.0381H18.2292ZM13.1719 2.19265C13.1719 0.985341 14.3177 0 15.7448 0C17.1719 0 18.3177 0.979927 18.3177 2.19265V11.7862C18.3177 12.9935 17.1667 13.9788 15.7448 13.9788C14.3177 13.9788 13.1719 12.9989 13.1719 11.7862V2.19265ZM2.83333 20.9737H51.8333V9.9292C51.8333 9.55023 51.6875 9.21997 51.4531 8.97635C51.2188 8.73272 50.8854 8.58113 50.5365 8.58113H45.8385C45.0521 8.58113 44.4115 7.91521 44.4115 7.0977C44.4115 6.28019 45.0521 5.61428 45.8385 5.61428H50.5365C51.6875 5.61428 52.7188 6.09612 53.474 6.88114C54.2292 7.66617 54.6927 8.73813 54.6927 9.93462V27.4704C53.7552 27.1348 52.7917 26.8641 51.8021 26.6638V23.9243H51.8333H2.83333V52.5262C2.83333 52.9052 2.97917 53.2355 3.21354 53.4791C3.44792 53.7227 3.78125 53.8743 4.13021 53.8743H27.4167C27.6823 54.903 28.0156 55.9045 28.4167 56.8682H4.15625C3.01042 56.8682 1.97396 56.3864 1.21875 55.6014C0.463542 54.8218 0 53.7498 0 52.5533V9.94003C0 8.74896 0.463542 7.67158 1.21875 6.88656C1.97396 6.10153 3.00521 5.61969 4.15625 5.61969H9.17188C9.95833 5.61969 10.599 6.28561 10.599 7.10312C10.599 7.92062 9.95833 8.58654 9.17188 8.58654H4.15625C3.79167 8.58654 3.47396 8.73813 3.23958 8.98176C3.00521 9.22539 2.85938 9.57188 2.85938 9.93462V20.9791H2.83333V20.9737ZM22.4323 8.58113C21.6458 8.58113 21.0052 7.91521 21.0052 7.0977C21.0052 6.28019 21.6458 5.61428 22.4323 5.61428H31.9948C32.7813 5.61428 33.4219 6.28019 33.4219 7.0977C33.4219 7.91521 32.7813 8.58113 31.9948 8.58113H22.4323Z" fill="black"/>
</g>
</g>
<defs>
<clipPath id="clip0_225_224">
<rect width="64" height="65" fill="white"/>
</clipPath>
</defs>
</svg>
