<svg width="155" height="65" viewBox="0 0 155 65" fill="none" xmlns="http://www.w3.org/2000/svg">
<g clip-path="url(#clip0_240_546)">
<mask id="path-1-inside-1_240_546" fill="white">
<path fill-rule="evenodd" clip-rule="evenodd" d="M33.377 27.695V32.1352H35.2096V21.5993H33.377V25.9794H28.3294V21.5993H26.4969V32.1352H27.1017H28.3295V27.695H33.377ZM43.7657 21.5242H42.0534L37.4267 32.1352H39.319L40.4009 29.5917H45.3729L46.4393 32.1352H48.3924L43.7657 21.5242ZM44.6971 27.951H41.0772L42.8796 23.7367L44.6971 27.951ZM59.5324 32.1352L56.6932 28.1469C57.0636 28.0462 57.4018 27.9034 57.7072 27.7177C58.0125 27.5319 58.2755 27.3063 58.4959 27.0402C58.716 26.7741 58.8888 26.4686 59.0139 26.1223C59.139 25.776 59.2018 25.3823 59.2018 24.9405C59.2018 24.4289 59.1117 23.9645 58.9312 23.5483C58.7511 23.132 58.4933 22.7805 58.1576 22.4949C57.8223 22.2089 57.4118 21.9881 56.9261 21.8326C56.4401 21.6773 55.8969 21.5993 55.2962 21.5993H50.6095V32.1352H52.4421V28.4628H54.7629L57.3542 32.1352H59.5324ZM57.3243 25.0383C57.3243 25.5829 57.1289 26.0169 56.7357 26.3377C56.3454 26.6615 55.817 26.8223 55.1534 26.8223H52.442V23.2702H55.1383C55.8321 23.2702 56.37 23.4181 56.7508 23.7167C57.1342 24.0127 57.3243 24.4541 57.3243 25.0383ZM74.2025 21.5994H66.3909V32.1353H68.2235V27.8459H73.5264V26.175H68.2237V23.2703H74.2027L74.2025 21.5994ZM76.7649 21.5994V32.1353H78.5975V21.5994H76.7649ZM89.1665 28.8842L83.5462 21.5993H81.8361V32.1352H83.6687V24.6395L89.4546 32.1352H90.9992V21.5993H89.1665V28.8842ZM99.5555 21.5242H97.843L93.2162 32.1352H95.109L96.1904 29.5917H101.163L102.229 32.1352H104.182L99.5555 21.5242ZM100.487 27.951H96.8666L98.6688 23.7367L100.487 27.951ZM113.73 28.8842L108.109 21.5993H106.399V32.1352H108.232V24.6395L114.018 32.1352H115.562V21.5993H113.73L113.73 28.8842ZM127.829 30.4497L126.642 29.2458C126.191 29.6668 125.736 30.0005 125.275 30.2462C124.814 30.4922 124.264 30.6154 123.623 30.6154C123.122 30.6154 122.659 30.5173 122.233 30.3216C121.807 30.1255 121.439 29.8576 121.129 29.5165C120.819 29.175 120.578 28.7762 120.408 28.3201C120.238 27.8635 120.152 27.374 120.152 26.852C120.152 26.3303 120.238 25.8438 120.408 25.3924C120.578 24.9406 120.819 24.547 121.129 24.2107C121.439 23.8748 121.807 23.6087 122.233 23.413C122.659 23.2172 123.122 23.1196 123.623 23.1196C124.224 23.1196 124.759 23.2403 125.23 23.4807C125.7 23.7216 126.146 24.0379 126.567 24.4291L127.754 23.0594C127.503 22.8186 127.238 22.5982 126.957 22.3971C126.677 22.1966 126.372 22.0236 126.041 21.878C125.711 21.7324 125.348 21.6194 124.952 21.5392C124.557 21.4589 124.118 21.4189 123.637 21.4189C122.837 21.4189 122.105 21.5617 121.445 21.8478C120.784 22.1338 120.213 22.5252 119.732 23.0216C119.252 23.5187 118.878 24.098 118.613 24.7602C118.348 25.4224 118.215 26.1298 118.215 26.8824C118.215 27.6454 118.35 28.3575 118.621 29.0198C118.891 29.6821 119.264 30.2567 119.74 30.7432C120.215 31.2297 120.779 31.6138 121.43 31.8946C122.08 32.1754 122.792 32.316 123.563 32.316C124.053 32.316 124.502 32.2733 124.907 32.1881C125.313 32.103 125.686 31.9775 126.026 31.8122C126.367 31.6465 126.685 31.4508 126.98 31.225C127.275 30.9991 127.559 30.7405 127.829 30.4497ZM130.286 21.5994V32.1353H132.119V21.5994H130.286ZM140.795 21.5242H139.083L134.456 32.1352H136.349L137.43 29.5917H142.403L143.469 32.1352H145.422L140.795 21.5242ZM141.727 27.951H138.106L139.909 23.7367L141.727 27.951ZM147.639 32.1352H155V30.4644H149.472V21.5993H147.639V32.1352Z"/>
</mask>
<path fill-rule="evenodd" clip-rule="evenodd" d="M33.377 27.695V32.1352H35.2096V21.5993H33.377V25.9794H28.3294V21.5993H26.4969V32.1352H27.1017H28.3295V27.695H33.377ZM43.7657 21.5242H42.0534L37.4267 32.1352H39.319L40.4009 29.5917H45.3729L46.4393 32.1352H48.3924L43.7657 21.5242ZM44.6971 27.951H41.0772L42.8796 23.7367L44.6971 27.951ZM59.5324 32.1352L56.6932 28.1469C57.0636 28.0462 57.4018 27.9034 57.7072 27.7177C58.0125 27.5319 58.2755 27.3063 58.4959 27.0402C58.716 26.7741 58.8888 26.4686 59.0139 26.1223C59.139 25.776 59.2018 25.3823 59.2018 24.9405C59.2018 24.4289 59.1117 23.9645 58.9312 23.5483C58.7511 23.132 58.4933 22.7805 58.1576 22.4949C57.8223 22.2089 57.4118 21.9881 56.9261 21.8326C56.4401 21.6773 55.8969 21.5993 55.2962 21.5993H50.6095V32.1352H52.4421V28.4628H54.7629L57.3542 32.1352H59.5324ZM57.3243 25.0383C57.3243 25.5829 57.1289 26.0169 56.7357 26.3377C56.3454 26.6615 55.817 26.8223 55.1534 26.8223H52.442V23.2702H55.1383C55.8321 23.2702 56.37 23.4181 56.7508 23.7167C57.1342 24.0127 57.3243 24.4541 57.3243 25.0383ZM74.2025 21.5994H66.3909V32.1353H68.2235V27.8459H73.5264V26.175H68.2237V23.2703H74.2027L74.2025 21.5994ZM76.7649 21.5994V32.1353H78.5975V21.5994H76.7649ZM89.1665 28.8842L83.5462 21.5993H81.8361V32.1352H83.6687V24.6395L89.4546 32.1352H90.9992V21.5993H89.1665V28.8842ZM99.5555 21.5242H97.843L93.2162 32.1352H95.109L96.1904 29.5917H101.163L102.229 32.1352H104.182L99.5555 21.5242ZM100.487 27.951H96.8666L98.6688 23.7367L100.487 27.951ZM113.73 28.8842L108.109 21.5993H106.399V32.1352H108.232V24.6395L114.018 32.1352H115.562V21.5993H113.73L113.73 28.8842ZM127.829 30.4497L126.642 29.2458C126.191 29.6668 125.736 30.0005 125.275 30.2462C124.814 30.4922 124.264 30.6154 123.623 30.6154C123.122 30.6154 122.659 30.5173 122.233 30.3216C121.807 30.1255 121.439 29.8576 121.129 29.5165C120.819 29.175 120.578 28.7762 120.408 28.3201C120.238 27.8635 120.152 27.374 120.152 26.852C120.152 26.3303 120.238 25.8438 120.408 25.3924C120.578 24.9406 120.819 24.547 121.129 24.2107C121.439 23.8748 121.807 23.6087 122.233 23.413C122.659 23.2172 123.122 23.1196 123.623 23.1196C124.224 23.1196 124.759 23.2403 125.23 23.4807C125.7 23.7216 126.146 24.0379 126.567 24.4291L127.754 23.0594C127.503 22.8186 127.238 22.5982 126.957 22.3971C126.677 22.1966 126.372 22.0236 126.041 21.878C125.711 21.7324 125.348 21.6194 124.952 21.5392C124.557 21.4589 124.118 21.4189 123.637 21.4189C122.837 21.4189 122.105 21.5617 121.445 21.8478C120.784 22.1338 120.213 22.5252 119.732 23.0216C119.252 23.5187 118.878 24.098 118.613 24.7602C118.348 25.4224 118.215 26.1298 118.215 26.8824C118.215 27.6454 118.35 28.3575 118.621 29.0198C118.891 29.6821 119.264 30.2567 119.74 30.7432C120.215 31.2297 120.779 31.6138 121.43 31.8946C122.08 32.1754 122.792 32.316 123.563 32.316C124.053 32.316 124.502 32.2733 124.907 32.1881C125.313 32.103 125.686 31.9775 126.026 31.8122C126.367 31.6465 126.685 31.4508 126.98 31.225C127.275 30.9991 127.559 30.7405 127.829 30.4497ZM130.286 21.5994V32.1353H132.119V21.5994H130.286ZM140.795 21.5242H139.083L134.456 32.1352H136.349L137.43 29.5917H142.403L143.469 32.1352H145.422L140.795 21.5242ZM141.727 27.951H138.106L139.909 23.7367L141.727 27.951ZM147.639 32.1352H155V30.4644H149.472V21.5993H147.639V32.1352Z" fill="#1E4D96" stroke="#1E4D96" stroke-width="20" mask="url(#path-1-inside-1_240_546)"/>
<mask id="path-2-inside-2_240_546" fill="white">
<path fill-rule="evenodd" clip-rule="evenodd" d="M27.8092 37.9788C27.8092 37.7725 27.8971 37.5976 28.0731 37.4533C28.2492 37.3092 28.4959 37.2372 28.8131 37.2372C29.0948 37.2372 29.374 37.2915 29.6498 37.4003C29.926 37.5094 30.2048 37.6667 30.4868 37.8728L31.068 37.0517C30.7507 36.799 30.4118 36.6063 30.0508 36.4736C29.6897 36.3414 29.2831 36.2751 28.8307 36.2751C28.5254 36.2751 28.2437 36.3178 27.9867 36.4032C27.7282 36.4882 27.5081 36.6104 27.3242 36.7695C27.1411 36.9282 26.9971 37.118 26.8914 37.3386C26.7869 37.5594 26.7342 37.8052 26.7342 38.0755C26.7342 38.3637 26.7799 38.6082 26.8707 38.808C26.9615 39.0082 27.0952 39.1787 27.2683 39.3202C27.4419 39.4615 27.6575 39.579 27.913 39.6731C28.17 39.7674 28.4621 39.8525 28.7922 39.9291C29.0803 39.9998 29.3136 40.0676 29.4942 40.1322C29.6733 40.197 29.814 40.2657 29.9185 40.3394C30.0211 40.413 30.0916 40.4942 30.1298 40.5822C30.1681 40.6704 30.1871 40.7704 30.1871 40.8822C30.1871 41.1234 30.0888 41.3147 29.892 41.456C29.6953 41.5969 29.4297 41.6677 29.0948 41.6677C28.7074 41.6677 28.3607 41.5988 28.0557 41.4604C27.7503 41.3219 27.4479 41.1232 27.1484 40.8648L26.4964 41.6414C26.8664 41.9765 27.2685 42.2251 27.7034 42.3869C28.1376 42.5489 28.5925 42.6295 29.0686 42.6295C29.3913 42.6295 29.6882 42.5883 29.9581 42.5063C30.2269 42.4238 30.4588 42.3033 30.6497 42.1441C30.8422 41.9855 30.9917 41.7911 31.1007 41.5617C31.2078 41.3323 31.2622 41.0703 31.2622 40.7763C31.2622 40.5172 31.2196 40.2923 31.1345 40.1011C31.0495 39.9099 30.9232 39.7421 30.7585 39.598C30.5942 39.454 30.3855 39.3319 30.1359 39.2316C29.8864 39.1318 29.5986 39.0404 29.2755 38.9582C28.9805 38.8874 28.7383 38.8197 28.5458 38.7551C28.3553 38.6903 28.2054 38.6197 28.0953 38.5434C27.9868 38.4668 27.9118 38.3844 27.8708 38.2963C27.8294 38.208 27.8092 38.1022 27.8092 37.9788ZM37.6298 36.3634H33.0669V42.5417H37.674V41.5618H34.1418V39.9113H37.2335V38.9316H34.1418V37.3429H37.6298V36.3634ZM44.7291 42.5417L43.0642 40.2027C43.2817 40.1438 43.4796 40.0602 43.659 39.9511C43.8378 39.8427 43.9921 39.7098 44.1213 39.5541C44.2501 39.3979 44.3516 39.2188 44.4251 39.0159C44.4986 38.8126 44.5353 38.5817 44.5353 38.3229C44.5353 38.0228 44.4824 37.7509 44.3768 37.5067C44.2709 37.2626 44.1198 37.0564 43.923 36.8889C43.7263 36.721 43.4855 36.5918 43.2007 36.5004C42.9157 36.4093 42.5973 36.3635 42.245 36.3635H39.4967V42.5418H40.5713V40.3885H41.9323L43.4519 42.5418L44.7291 42.5417ZM43.4342 38.3804C43.4342 38.6993 43.3197 38.9539 43.0892 39.1423C42.8599 39.332 42.5502 39.426 42.1613 39.426H40.5713V37.343H42.1524C42.5589 37.343 42.8747 37.4301 43.0977 37.6051C43.3225 37.7785 43.4342 38.0374 43.4342 38.3804ZM48.7447 41.1119L46.8862 36.3634H45.6883L48.2516 42.5856H49.2029L51.7662 36.3634H50.5946L48.7447 41.1119ZM53.4128 36.3634V42.5417H54.4874V36.3634H53.4128ZM62.0358 41.5531L61.3398 40.8472C61.0757 41.0943 60.8083 41.2899 60.5384 41.4339C60.2681 41.5782 59.9455 41.6499 59.5695 41.6499C59.276 41.6499 59.0042 41.5931 58.7545 41.478C58.505 41.3631 58.2893 41.206 58.1069 41.0058C57.9249 40.806 57.7841 40.5718 57.6842 40.3042C57.5846 40.0365 57.5346 39.7498 57.5346 39.4437C57.5346 39.1377 57.5844 38.8523 57.6842 38.5876C57.7843 38.3227 57.925 38.0918 58.1069 37.8946C58.2893 37.6978 58.505 37.5416 58.7545 37.4269C59.004 37.3122 59.276 37.2548 59.5695 37.2548C59.9218 37.2548 60.2357 37.3256 60.5119 37.4665C60.7876 37.6078 61.0491 37.7933 61.2958 38.0225L61.9918 37.2193C61.8449 37.0783 61.6893 36.9485 61.5246 36.8312C61.3603 36.7135 61.1813 36.6121 60.9875 36.5268C60.7935 36.4412 60.5809 36.375 60.3491 36.3281C60.1171 36.281 59.8601 36.2573 59.5785 36.2573C59.1083 36.2573 58.6797 36.3413 58.292 36.5089C57.9046 36.6765 57.57 36.9063 57.288 37.1975C57.0063 37.4887 56.7873 37.8283 56.6319 38.2168C56.476 38.6053 56.3985 39.0201 56.3985 39.4615C56.3985 39.9083 56.4779 40.326 56.6363 40.7146C56.7948 41.1032 57.0137 41.4398 57.2926 41.725C57.5718 42.0107 57.9019 42.2355 58.2837 42.4002C58.6651 42.5653 59.082 42.6474 59.5344 42.6474C59.822 42.6474 60.085 42.6225 60.3228 42.5722C60.5606 42.5223 60.7795 42.4491 60.9789 42.3518C61.1787 42.2548 61.3651 42.1401 61.5382 42.0078C61.7115 41.8753 61.8772 41.724 62.0358 41.5531ZM68.2628 36.3634H63.6998V42.5417H68.3067V41.5618H64.7744V39.9113H67.8661V38.9316H64.7744V37.3429H68.2626L68.2628 36.3634ZM71.0367 37.9788C71.0367 37.7725 71.1249 37.5976 71.301 37.4533C71.4772 37.3092 71.7237 37.2372 72.041 37.2372C72.3227 37.2372 72.6019 37.2915 72.8777 37.4003C73.1535 37.5094 73.4327 37.6667 73.7143 37.8728L74.2958 37.0517C73.9787 36.799 73.6393 36.6063 73.2786 36.4736C72.9171 36.3414 72.5106 36.2751 72.0583 36.2751C71.7529 36.2751 71.4712 36.3178 71.2142 36.4032C70.9557 36.4882 70.7356 36.6104 70.5521 36.7695C70.3686 36.9282 70.2248 37.118 70.1193 37.3386C70.0148 37.5594 69.962 37.8052 69.962 38.0755C69.962 38.3637 70.0077 38.6082 70.0985 38.808C70.1894 39.0082 70.323 39.1787 70.4963 39.3202C70.6694 39.4615 70.8854 39.579 71.1409 39.6731C71.3975 39.7674 71.6896 39.8525 72.0201 39.9291C72.3078 39.9998 72.5411 40.0676 72.7217 40.1322C72.9011 40.197 73.0419 40.2657 73.1463 40.3394C73.2489 40.413 73.3194 40.4942 73.3575 40.5822C73.3955 40.6704 73.4147 40.7704 73.4147 40.8822C73.4147 41.1234 73.3166 41.3147 73.1197 41.456C72.9229 41.5969 72.6571 41.6677 72.3226 41.6677C71.9352 41.6677 71.5885 41.5988 71.2832 41.4604C70.9779 41.3219 70.6754 41.1232 70.3759 40.8648L69.7242 41.6414C70.0942 41.9765 70.4963 42.2251 70.9309 42.3869C71.3655 42.5489 71.8205 42.6295 72.2965 42.6295C72.6192 42.6295 72.9161 42.5883 73.1859 42.5063C73.4547 42.4238 73.6867 42.3033 73.8775 42.1441C74.0696 41.9855 74.2195 41.7911 74.3281 41.5617C74.4352 41.3323 74.4898 41.0703 74.4898 40.7763C74.4898 40.5172 74.4469 40.2923 74.3617 40.1011C74.2768 39.9099 74.1505 39.7421 73.9862 39.598C73.8219 39.454 73.6132 39.3319 73.3635 39.2316C73.114 39.1318 72.8263 39.0404 72.5031 38.9582C72.2081 38.8874 71.9658 38.8197 71.7735 38.7551C71.5827 38.6903 71.4331 38.6197 71.3227 38.5434C71.214 38.4668 71.1394 38.3844 71.0982 38.2963C71.0572 38.208 71.0367 38.1022 71.0367 37.9788ZM78.9992 36.3634V42.5417H80.0738V36.3634H78.9992ZM86.5559 40.6355L83.2604 36.3634H82.2575V42.5417H83.332V38.1462L86.7251 42.5417H87.6309V36.3634H86.5561L86.5559 40.6355ZM95.1086 41.5531L94.4126 40.8472C94.1482 41.0943 93.8813 41.2899 93.6108 41.4339C93.341 41.5782 93.0179 41.6499 92.6419 41.6499C92.3484 41.6499 92.0767 41.5931 91.8275 41.478C91.5779 41.3631 91.3618 41.206 91.1797 41.0058C90.9977 40.806 90.8571 40.5718 90.757 40.3042C90.6574 40.0365 90.6074 39.7498 90.6074 39.4437C90.6074 39.1377 90.6573 38.8523 90.757 38.5876C90.8571 38.3227 90.9978 38.0918 91.1797 37.8946C91.3618 37.6978 91.5779 37.5416 91.8275 37.4269C92.0767 37.3122 92.3484 37.2548 92.6419 37.2548C92.9942 37.2548 93.3084 37.3256 93.5847 37.4665C93.8605 37.6078 94.122 37.7933 94.3686 38.0225L95.0644 37.2193C94.9177 37.0783 94.7619 36.9485 94.5976 36.8312C94.4333 36.7135 94.2541 36.6121 94.0603 36.5268C93.8665 36.4412 93.6534 36.375 93.4215 36.3281C93.1897 36.281 92.9325 36.2573 92.6509 36.2573C92.1813 36.2573 91.7525 36.3413 91.3648 36.5089C90.9774 36.6765 90.6426 36.9063 90.3608 37.1975C90.0787 37.4887 89.8601 37.8283 89.7047 38.2168C89.5488 38.6053 89.471 39.0201 89.471 39.4615C89.471 39.9083 89.5503 40.326 89.709 40.7146C89.8675 41.1032 90.0862 41.4398 90.3653 41.725C90.6441 42.0107 90.9746 42.2355 91.356 42.4002C91.7378 42.5653 92.1546 42.6474 92.6068 42.6474C92.8944 42.6474 93.1574 42.6225 93.3952 42.5722C93.633 42.5223 93.8516 42.4491 94.0513 42.3518C94.2512 42.2548 94.4376 42.1401 94.6108 42.0078C94.7841 41.8753 94.9499 41.724 95.1086 41.5531Z"/>
</mask>
<path fill-rule="evenodd" clip-rule="evenodd" d="M27.8092 37.9788C27.8092 37.7725 27.8971 37.5976 28.0731 37.4533C28.2492 37.3092 28.4959 37.2372 28.8131 37.2372C29.0948 37.2372 29.374 37.2915 29.6498 37.4003C29.926 37.5094 30.2048 37.6667 30.4868 37.8728L31.068 37.0517C30.7507 36.799 30.4118 36.6063 30.0508 36.4736C29.6897 36.3414 29.2831 36.2751 28.8307 36.2751C28.5254 36.2751 28.2437 36.3178 27.9867 36.4032C27.7282 36.4882 27.5081 36.6104 27.3242 36.7695C27.1411 36.9282 26.9971 37.118 26.8914 37.3386C26.7869 37.5594 26.7342 37.8052 26.7342 38.0755C26.7342 38.3637 26.7799 38.6082 26.8707 38.808C26.9615 39.0082 27.0952 39.1787 27.2683 39.3202C27.4419 39.4615 27.6575 39.579 27.913 39.6731C28.17 39.7674 28.4621 39.8525 28.7922 39.9291C29.0803 39.9998 29.3136 40.0676 29.4942 40.1322C29.6733 40.197 29.814 40.2657 29.9185 40.3394C30.0211 40.413 30.0916 40.4942 30.1298 40.5822C30.1681 40.6704 30.1871 40.7704 30.1871 40.8822C30.1871 41.1234 30.0888 41.3147 29.892 41.456C29.6953 41.5969 29.4297 41.6677 29.0948 41.6677C28.7074 41.6677 28.3607 41.5988 28.0557 41.4604C27.7503 41.3219 27.4479 41.1232 27.1484 40.8648L26.4964 41.6414C26.8664 41.9765 27.2685 42.2251 27.7034 42.3869C28.1376 42.5489 28.5925 42.6295 29.0686 42.6295C29.3913 42.6295 29.6882 42.5883 29.9581 42.5063C30.2269 42.4238 30.4588 42.3033 30.6497 42.1441C30.8422 41.9855 30.9917 41.7911 31.1007 41.5617C31.2078 41.3323 31.2622 41.0703 31.2622 40.7763C31.2622 40.5172 31.2196 40.2923 31.1345 40.1011C31.0495 39.9099 30.9232 39.7421 30.7585 39.598C30.5942 39.454 30.3855 39.3319 30.1359 39.2316C29.8864 39.1318 29.5986 39.0404 29.2755 38.9582C28.9805 38.8874 28.7383 38.8197 28.5458 38.7551C28.3553 38.6903 28.2054 38.6197 28.0953 38.5434C27.9868 38.4668 27.9118 38.3844 27.8708 38.2963C27.8294 38.208 27.8092 38.1022 27.8092 37.9788ZM37.6298 36.3634H33.0669V42.5417H37.674V41.5618H34.1418V39.9113H37.2335V38.9316H34.1418V37.3429H37.6298V36.3634ZM44.7291 42.5417L43.0642 40.2027C43.2817 40.1438 43.4796 40.0602 43.659 39.9511C43.8378 39.8427 43.9921 39.7098 44.1213 39.5541C44.2501 39.3979 44.3516 39.2188 44.4251 39.0159C44.4986 38.8126 44.5353 38.5817 44.5353 38.3229C44.5353 38.0228 44.4824 37.7509 44.3768 37.5067C44.2709 37.2626 44.1198 37.0564 43.923 36.8889C43.7263 36.721 43.4855 36.5918 43.2007 36.5004C42.9157 36.4093 42.5973 36.3635 42.245 36.3635H39.4967V42.5418H40.5713V40.3885H41.9323L43.4519 42.5418L44.7291 42.5417ZM43.4342 38.3804C43.4342 38.6993 43.3197 38.9539 43.0892 39.1423C42.8599 39.332 42.5502 39.426 42.1613 39.426H40.5713V37.343H42.1524C42.5589 37.343 42.8747 37.4301 43.0977 37.6051C43.3225 37.7785 43.4342 38.0374 43.4342 38.3804ZM48.7447 41.1119L46.8862 36.3634H45.6883L48.2516 42.5856H49.2029L51.7662 36.3634H50.5946L48.7447 41.1119ZM53.4128 36.3634V42.5417H54.4874V36.3634H53.4128ZM62.0358 41.5531L61.3398 40.8472C61.0757 41.0943 60.8083 41.2899 60.5384 41.4339C60.2681 41.5782 59.9455 41.6499 59.5695 41.6499C59.276 41.6499 59.0042 41.5931 58.7545 41.478C58.505 41.3631 58.2893 41.206 58.1069 41.0058C57.9249 40.806 57.7841 40.5718 57.6842 40.3042C57.5846 40.0365 57.5346 39.7498 57.5346 39.4437C57.5346 39.1377 57.5844 38.8523 57.6842 38.5876C57.7843 38.3227 57.925 38.0918 58.1069 37.8946C58.2893 37.6978 58.505 37.5416 58.7545 37.4269C59.004 37.3122 59.276 37.2548 59.5695 37.2548C59.9218 37.2548 60.2357 37.3256 60.5119 37.4665C60.7876 37.6078 61.0491 37.7933 61.2958 38.0225L61.9918 37.2193C61.8449 37.0783 61.6893 36.9485 61.5246 36.8312C61.3603 36.7135 61.1813 36.6121 60.9875 36.5268C60.7935 36.4412 60.5809 36.375 60.3491 36.3281C60.1171 36.281 59.8601 36.2573 59.5785 36.2573C59.1083 36.2573 58.6797 36.3413 58.292 36.5089C57.9046 36.6765 57.57 36.9063 57.288 37.1975C57.0063 37.4887 56.7873 37.8283 56.6319 38.2168C56.476 38.6053 56.3985 39.0201 56.3985 39.4615C56.3985 39.9083 56.4779 40.326 56.6363 40.7146C56.7948 41.1032 57.0137 41.4398 57.2926 41.725C57.5718 42.0107 57.9019 42.2355 58.2837 42.4002C58.6651 42.5653 59.082 42.6474 59.5344 42.6474C59.822 42.6474 60.085 42.6225 60.3228 42.5722C60.5606 42.5223 60.7795 42.4491 60.9789 42.3518C61.1787 42.2548 61.3651 42.1401 61.5382 42.0078C61.7115 41.8753 61.8772 41.724 62.0358 41.5531ZM68.2628 36.3634H63.6998V42.5417H68.3067V41.5618H64.7744V39.9113H67.8661V38.9316H64.7744V37.3429H68.2626L68.2628 36.3634ZM71.0367 37.9788C71.0367 37.7725 71.1249 37.5976 71.301 37.4533C71.4772 37.3092 71.7237 37.2372 72.041 37.2372C72.3227 37.2372 72.6019 37.2915 72.8777 37.4003C73.1535 37.5094 73.4327 37.6667 73.7143 37.8728L74.2958 37.0517C73.9787 36.799 73.6393 36.6063 73.2786 36.4736C72.9171 36.3414 72.5106 36.2751 72.0583 36.2751C71.7529 36.2751 71.4712 36.3178 71.2142 36.4032C70.9557 36.4882 70.7356 36.6104 70.5521 36.7695C70.3686 36.9282 70.2248 37.118 70.1193 37.3386C70.0148 37.5594 69.962 37.8052 69.962 38.0755C69.962 38.3637 70.0077 38.6082 70.0985 38.808C70.1894 39.0082 70.323 39.1787 70.4963 39.3202C70.6694 39.4615 70.8854 39.579 71.1409 39.6731C71.3975 39.7674 71.6896 39.8525 72.0201 39.9291C72.3078 39.9998 72.5411 40.0676 72.7217 40.1322C72.9011 40.197 73.0419 40.2657 73.1463 40.3394C73.2489 40.413 73.3194 40.4942 73.3575 40.5822C73.3955 40.6704 73.4147 40.7704 73.4147 40.8822C73.4147 41.1234 73.3166 41.3147 73.1197 41.456C72.9229 41.5969 72.6571 41.6677 72.3226 41.6677C71.9352 41.6677 71.5885 41.5988 71.2832 41.4604C70.9779 41.3219 70.6754 41.1232 70.3759 40.8648L69.7242 41.6414C70.0942 41.9765 70.4963 42.2251 70.9309 42.3869C71.3655 42.5489 71.8205 42.6295 72.2965 42.6295C72.6192 42.6295 72.9161 42.5883 73.1859 42.5063C73.4547 42.4238 73.6867 42.3033 73.8775 42.1441C74.0696 41.9855 74.2195 41.7911 74.3281 41.5617C74.4352 41.3323 74.4898 41.0703 74.4898 40.7763C74.4898 40.5172 74.4469 40.2923 74.3617 40.1011C74.2768 39.9099 74.1505 39.7421 73.9862 39.598C73.8219 39.454 73.6132 39.3319 73.3635 39.2316C73.114 39.1318 72.8263 39.0404 72.5031 38.9582C72.2081 38.8874 71.9658 38.8197 71.7735 38.7551C71.5827 38.6903 71.4331 38.6197 71.3227 38.5434C71.214 38.4668 71.1394 38.3844 71.0982 38.2963C71.0572 38.208 71.0367 38.1022 71.0367 37.9788ZM78.9992 36.3634V42.5417H80.0738V36.3634H78.9992ZM86.5559 40.6355L83.2604 36.3634H82.2575V42.5417H83.332V38.1462L86.7251 42.5417H87.6309V36.3634H86.5561L86.5559 40.6355ZM95.1086 41.5531L94.4126 40.8472C94.1482 41.0943 93.8813 41.2899 93.6108 41.4339C93.341 41.5782 93.0179 41.6499 92.6419 41.6499C92.3484 41.6499 92.0767 41.5931 91.8275 41.478C91.5779 41.3631 91.3618 41.206 91.1797 41.0058C90.9977 40.806 90.8571 40.5718 90.757 40.3042C90.6574 40.0365 90.6074 39.7498 90.6074 39.4437C90.6074 39.1377 90.6573 38.8523 90.757 38.5876C90.8571 38.3227 90.9978 38.0918 91.1797 37.8946C91.3618 37.6978 91.5779 37.5416 91.8275 37.4269C92.0767 37.3122 92.3484 37.2548 92.6419 37.2548C92.9942 37.2548 93.3084 37.3256 93.5847 37.4665C93.8605 37.6078 94.122 37.7933 94.3686 38.0225L95.0644 37.2193C94.9177 37.0783 94.7619 36.9485 94.5976 36.8312C94.4333 36.7135 94.2541 36.6121 94.0603 36.5268C93.8665 36.4412 93.6534 36.375 93.4215 36.3281C93.1897 36.281 92.9325 36.2573 92.6509 36.2573C92.1813 36.2573 91.7525 36.3413 91.3648 36.5089C90.9774 36.6765 90.6426 36.9063 90.3608 37.1975C90.0787 37.4887 89.8601 37.8283 89.7047 38.2168C89.5488 38.6053 89.471 39.0201 89.471 39.4615C89.471 39.9083 89.5503 40.326 89.709 40.7146C89.8675 41.1032 90.0862 41.4398 90.3653 41.725C90.6441 42.0107 90.9746 42.2355 91.356 42.4002C91.7378 42.5653 92.1546 42.6474 92.6068 42.6474C92.8944 42.6474 93.1574 42.6225 93.3952 42.5722C93.633 42.5223 93.8516 42.4491 94.0513 42.3518C94.2512 42.2548 94.4376 42.1401 94.6108 42.0078C94.7841 41.8753 94.9499 41.724 95.1086 41.5531Z" fill="#1E4D96" stroke="#1E4D96" stroke-width="20" mask="url(#path-2-inside-2_240_546)"/>
<mask id="path-3-inside-3_240_546" fill="white">
<path d="M154.999 38.9551H99.238V39.95H154.999V38.9551Z"/>
</mask>
<path d="M154.999 38.9551H99.238V39.95H154.999V38.9551Z" fill="#1E4D96"/>
<path d="M99.238 38.9551V28.9551H89.238V38.9551H99.238ZM154.999 38.9551H164.999V28.9551H154.999V38.9551ZM154.999 39.95V49.95H164.999V39.95H154.999ZM99.238 39.95H89.238V49.95H99.238V39.95ZM99.238 48.9551H154.999V28.9551H99.238V48.9551ZM144.999 38.9551V39.95H164.999V38.9551H144.999ZM154.999 29.95H99.238V49.95H154.999V29.95ZM109.238 39.95V38.9551H89.238V39.95H109.238Z" fill="#1E4D96" mask="url(#path-3-inside-3_240_546)"/>
<path fill-rule="evenodd" clip-rule="evenodd" d="M21.5519 59.462C8.10806 54.5582 -0.449778 41.3045 0.596318 27.0074C-2.38366 42.1007 6.06202 57.1179 20.4913 62.3807C34.9202 67.6444 51.0249 61.5826 58.4267 48.1024C50.0545 59.7269 34.9957 64.366 21.5519 59.462Z" fill="#1E4D96"/>
<path fill-rule="evenodd" clip-rule="evenodd" d="M5.34633 42.4032C11.6953 55.4369 26.4045 62.0965 40.3627 58.2575C27.0599 60.0309 14.1168 53.0768 8.23061 40.9928C2.34443 28.9089 4.83492 14.4069 14.4145 4.98981C2.80657 13.6541 -1.00267 29.37 5.34633 42.4032Z" fill="#1E4D96"/>
<path fill-rule="evenodd" clip-rule="evenodd" d="M10.9527 16.0515C5.52875 27.7361 9.13775 41.6336 19.5575 49.1879C11.2547 40.8274 9.03634 28.166 14.0006 17.4717C18.9645 6.77747 30.0576 0.31917 41.7885 1.29435C29.3087 -1.82228 16.3763 4.36679 10.9527 16.0515Z" fill="#1E4D96"/>
<path fill-rule="evenodd" clip-rule="evenodd" d="M31.374 5.47562C20.4421 9.31592 13.6298 20.2381 14.9758 31.7667C15.3757 21.0843 22.2586 11.7352 32.3267 8.19795C42.3948 4.66083 53.5972 7.65661 60.5676 15.7499C54.4339 5.90374 42.3058 1.6349 31.374 5.47562Z" fill="#1E4D96"/>
</g>
<defs>
<clipPath id="clip0_240_546">
<rect width="155" height="64.7603" fill="white"/>
</clipPath>
</defs>
</svg>
