<svg width="68" height="65" viewBox="0 0 68 65" fill="none" xmlns="http://www.w3.org/2000/svg">
<g id="Frame" clip-path="url(#clip0_225_265)">
<g id="Layer_x0020_1">
<path id="Vector" fill-rule="evenodd" clip-rule="evenodd" d="M20.072 60.7038C19.4313 60.7038 18.9149 60.2194 18.9149 59.607V59.1956H17.8152C17.1841 59.1956 16.6677 58.702 16.6677 58.0987C16.6677 57.4954 17.1841 57.0018 17.8152 57.0018H21.1717V54.8903H17.8152C17.1841 54.8903 16.6677 54.3967 16.6677 53.7934V49.4881C16.6677 48.8848 17.1841 48.3912 17.8152 48.3912H18.9149V47.9799C18.9149 47.3675 19.4313 46.883 20.072 46.883C20.7031 46.883 21.2195 47.3675 21.2195 47.9799V48.3912H22.3192C22.9504 48.3912 23.4667 48.8848 23.4667 49.4881C23.4667 50.0914 22.9504 50.585 22.3192 50.585H18.9627V52.6965H22.3479C22.6635 52.6965 22.9599 52.8336 23.1703 53.053C23.1799 53.0622 23.1799 53.0713 23.1894 53.0713C23.199 53.0896 23.2086 53.0987 23.2277 53.117C23.2277 53.1261 23.2372 53.1261 23.2372 53.1353C23.2468 53.1444 23.2468 53.1536 23.2564 53.1627C23.2659 53.1627 23.2659 53.1719 23.2755 53.181L23.2851 53.1993C23.2946 53.2084 23.2946 53.2176 23.3042 53.2267C23.3042 53.2358 23.3137 53.2358 23.3137 53.245C23.3233 53.2633 23.3329 53.2815 23.3424 53.2907C23.3424 53.2998 23.352 53.309 23.352 53.3181C23.3616 53.3272 23.3616 53.3364 23.3711 53.3455C23.3711 53.3547 23.3711 53.3547 23.3807 53.3638L23.3902 53.3912C23.3902 53.4004 23.3998 53.4095 23.3998 53.4187C23.3998 53.4278 23.4094 53.4369 23.4094 53.4461C23.4094 53.4461 23.4094 53.4552 23.4189 53.4644C23.4189 53.4735 23.4189 53.4826 23.4285 53.4918C23.4285 53.5009 23.4285 53.5101 23.4285 53.5192C23.4381 53.5283 23.4381 53.5375 23.4381 53.5466C23.4381 53.5558 23.4381 53.5649 23.4476 53.574C23.4476 53.5832 23.4476 53.5923 23.4476 53.6015C23.4476 53.6106 23.4572 53.6198 23.4572 53.6289C23.4572 53.638 23.4572 53.6472 23.4572 53.6563C23.4572 53.6655 23.4572 53.6746 23.4667 53.6837C23.4667 53.6929 23.4667 53.702 23.4667 53.7112C23.4667 53.7203 23.4667 53.7294 23.4667 53.7386C23.4667 53.7477 23.4667 53.7569 23.4667 53.766C23.4667 53.7751 23.4667 53.7843 23.4667 53.7934V58.0987C23.4667 58.702 22.9504 59.1956 22.3192 59.1956H21.2195V59.607C21.2195 60.2194 20.7031 60.7038 20.072 60.7038ZM38.7479 55.4753C38.4132 55.4753 38.0976 55.3382 37.8681 55.0914L35.0089 51.8921L32.1496 55.0914C31.9679 55.2834 31.7289 55.4113 31.4611 55.457C30.6196 60.7495 25.8383 64.8172 20.072 64.8172C14.3057 64.8172 9.51484 60.7495 8.67333 55.457C8.40558 55.4113 8.16651 55.2834 7.98482 55.0914L5.12559 51.8921L2.26636 55.0914C1.57785 55.8592 0.239075 55.3839 0.239075 54.3784V1.28886C0.239075 0.676432 0.755458 0.182831 1.39616 0.182831H38.7479C39.379 0.182831 39.8954 0.676432 39.8954 1.28886V1.51738C42.1904 0.658151 44.6863 0.182831 47.2969 0.182831C58.5808 0.182831 67.7609 8.95797 67.7609 19.7441C67.7609 30.1554 59.1928 38.6929 48.4444 39.2687V44.0494H51.6574C52.2981 44.0494 52.805 44.543 52.805 45.1463V63.7203C52.805 64.3236 52.2981 64.8172 51.6574 64.8172H42.9363C42.3052 64.8172 41.7888 64.3236 41.7888 63.7203V45.1463C41.7888 44.543 42.3052 44.0494 42.9363 44.0494H46.1494V39.2687C43.9595 39.1499 41.8557 38.702 39.8954 37.9708V54.3784C39.8954 54.9726 39.3599 55.4753 38.7479 55.4753ZM31.5089 52.4223L34.1387 49.4881C34.5881 48.9854 35.4296 48.9854 35.8791 49.4881L37.6003 51.4077V36.9561C36.3094 36.2889 35.1045 35.5028 33.9952 34.5978C33.9379 34.607 33.8805 34.607 33.8135 34.607H6.32092C5.68022 34.607 5.1734 34.1225 5.1734 33.5101C5.1734 32.9068 5.68022 32.4132 6.32092 32.4132H31.7193C25.9148 25.8958 25.2263 16.4991 30.0076 9.28703C31.8914 6.44426 34.5116 4.11336 37.6003 2.52287V2.38576H2.54367V51.4077L4.25539 49.4881C4.70483 48.9854 5.54634 48.9854 5.99579 49.4881L8.62552 52.4223C9.33315 46.9927 14.191 42.7697 20.072 42.7697C25.9435 42.7697 30.8013 46.9927 31.5089 52.4223ZM47.2969 2.38576C37.017 2.38576 28.8696 10.5393 29.147 20.2377C29.4243 29.5795 37.4569 37.1024 47.2969 37.1024C57.3185 37.1024 65.4659 29.3145 65.4659 19.7441C65.4659 10.1737 57.3185 2.38576 47.2969 2.38576ZM47.2969 35.2285C38.3654 35.2285 31.0977 28.2815 31.0977 19.7441C31.0977 11.2066 38.3654 4.25961 47.2969 4.25961C56.2379 4.25961 63.5056 11.2066 63.5056 19.7441C63.5056 28.2815 56.2379 35.2285 47.2969 35.2285ZM47.2969 6.4534C39.6372 6.4534 33.3928 12.4132 33.3928 19.7441C33.3928 27.0658 39.6372 33.0347 47.2969 33.0347C54.9661 33.0347 61.201 27.0658 61.201 19.7441C61.201 12.4132 54.9661 6.4534 47.2969 6.4534ZM44.0934 62.6234H50.5099V46.2432H44.0934V62.6234ZM26.3451 8.71117H13.7893C13.1582 8.71117 12.6418 8.21756 12.6418 7.61427C12.6418 7.01098 13.1582 6.51738 13.7893 6.51738H26.3451C26.9762 6.51738 27.4926 7.01098 27.4926 7.61427C27.4926 8.21756 26.9762 8.71117 26.3451 8.71117ZM23.6963 13.894H6.32092C5.68022 13.894 5.1734 13.4004 5.1734 12.7971C5.1734 12.1847 5.68022 11.7002 6.32092 11.7002H23.6963C24.337 11.7002 24.8438 12.1847 24.8438 12.7971C24.8438 13.4004 24.3274 13.894 23.6963 13.894ZM23.6963 19.0677H6.32092C5.68022 19.0677 5.1734 18.5832 5.1734 17.9708C5.1734 17.3675 5.68022 16.8739 6.32092 16.8739H23.6963C24.337 16.8739 24.8438 17.3675 24.8438 17.9708C24.8438 18.5832 24.3274 19.0677 23.6963 19.0677ZM23.6963 24.2505H6.32092C5.68022 24.2505 5.1734 23.7569 5.1734 23.1536C5.1734 22.5503 5.68022 22.0567 6.32092 22.0567H23.6963C24.337 22.0567 24.8438 22.5503 24.8438 23.1536C24.8438 23.7569 24.3274 24.2505 23.6963 24.2505ZM23.6963 29.4333H6.32092C5.68022 29.4333 5.1734 28.9397 5.1734 28.3364C5.1734 27.724 5.68022 27.2395 6.32092 27.2395H23.6963C24.337 27.2395 24.8438 27.724 24.8438 28.3364C24.8438 28.9397 24.3274 29.4333 23.6963 29.4333ZM33.8135 39.7898H6.32092C5.68022 39.7898 5.1734 39.2962 5.1734 38.6929C5.1734 38.0896 5.68022 37.596 6.32092 37.596H33.8135C34.4542 37.596 34.9611 38.0896 34.9611 38.6929C34.9611 39.2962 34.4542 39.7898 33.8135 39.7898ZM40.7847 27.0658C39.7902 27.0658 39.2356 25.8958 39.9719 25.192L53.0058 12.7331C53.4552 12.3035 54.182 12.3035 54.6314 12.7331C55.0809 13.1627 55.0809 13.8574 54.6314 14.287L41.5975 26.7459C41.368 26.9653 41.0716 27.0658 40.7847 27.0658ZM42.592 19.1408C40.3544 19.1408 38.5184 17.3858 38.5184 15.2468C38.5184 13.0987 40.3544 11.3528 42.592 11.3528C44.8393 11.3528 46.6657 13.0987 46.6657 15.2468C46.6657 17.3858 44.8393 19.1408 42.592 19.1408ZM42.592 13.5466C41.0142 13.5466 40.2205 15.3748 41.3393 16.4443C42.4486 17.5137 44.3707 16.755 44.3707 15.2468C44.3707 14.3145 43.5674 13.5466 42.592 13.5466ZM52.0113 28.1353C50.9211 28.1353 49.8979 27.7331 49.1233 26.9927C47.5359 25.4753 47.5359 23.0073 49.1233 21.49C50.7107 19.9726 53.3022 19.9726 54.8896 21.49C56.477 23.0073 56.477 25.4753 54.8896 26.9927C54.115 27.7331 53.0918 28.1353 52.0113 28.1353ZM52.0113 22.5411C50.4525 22.5411 49.6206 24.3602 50.749 25.4388C51.4375 26.0969 52.5755 26.0969 53.264 25.4388C54.3924 24.3602 53.5604 22.5411 52.0113 22.5411ZM20.072 44.9726C14.9751 44.9726 10.8345 48.9305 10.8345 53.7934C10.8345 58.6563 14.9751 62.6234 20.072 62.6234C25.1593 62.6234 29.3 58.6563 29.3 53.7934C29.3 48.9305 25.1593 44.9726 20.072 44.9726Z" fill="black"/>
</g>
</g>
<defs>
<clipPath id="clip0_225_265">
<rect width="68" height="65" fill="white"/>
</clipPath>
</defs>
</svg>
